<svg xmlns="http://www.w3.org/2000/svg" viewBox="0 0 106.86 42.03" xmlns:v="https://vecta.io/nano"><path d="M97.53 25.88c2.31 0 3.59 1.51 3.59 4.24v11.45h5.74v-13.3c0-4.76-2.6-7.6-6.95-7.6-3.03 0-4.73 1.66-6 3.29l-.09.12v-3.02h-5.74v20.51h5.74V30.12c0-2.7 1.35-4.24 3.71-4.24m-17.24 5.55c0 1.54-.51 2.95-1.43 3.98-.99 1.1-2.36 1.69-3.97 1.69s-2.95-.61-3.96-1.72c-.98-1.07-1.51-2.5-1.51-4.02v-.08c0-1.54.51-2.95 1.43-3.98.99-1.1 2.36-1.69 3.97-1.69s2.95.61 3.96 1.72c.98 1.07 1.51 2.5 1.51 4.02v.08zm-5.4-10.76c-3.07 0-5.9 1.11-7.97 3.13-2.05 1.99-3.17 4.67-3.17 7.55v.08c0 2.87 1.12 5.54 3.15 7.51 2.05 1.99 4.86 3.09 7.92 3.09s5.9-1.11 7.97-3.13a10.46 10.46 0 0 0 3.17-7.55v-.08c0-2.87-1.12-5.54-3.15-7.51-2.05-1.99-4.87-3.09-7.92-3.09m-16.2 20.9h6.57l-8.09-12.45.03-.03 7.76-8.03H58.1l-6.92 7.58V14.18h-5.74v27.39h5.74v-6.24l.02-.01 2.08-2.2 5.41 8.45zm-28.03.39c3.03 0 4.73-1.66 6-3.29l.09-.12v3.02h5.74V21.06h-5.74v11.45c0 2.7-1.35 4.24-3.71 4.24s-3.59-1.51-3.59-4.24V21.06h-5.74v13.29c0 4.76 2.6 7.6 6.95 7.6M13.25 25.31l-.04-.07L6.8 14.75H0L10.3 30.7v10.87h5.82V30.58l.01-.01 10.3-15.82h-6.61l-6.57 10.56z" fill="#fff"/><path d="M74.84 0l-2.05 6.59-4.45-5.27.62 6.88-6.13-3.17 3.21 6.11-6.88-.58 5.3 4.42-6.57 2.1 5.65 1.75 4.85-5.19 1.99 2.13 4.52-4.83 4.51 4.83 1.99-2.13 4.81 5.14 5.71-1.82-6.59-2.05 5.27-4.46-6.88.63 3.17-6.14-6.11 3.21.58-6.88-4.42 5.31L74.84 0z" fill="#f5a800"/></svg>