<svg xmlns="http://www.w3.org/2000/svg" viewBox="0 0 304.3 119.69" xmlns:v="https://vecta.io/nano"><path d="M277.72 73.69c6.59 0 10.22 4.29 10.22 12.08v32.6h16.36V80.51c0-13.56-7.4-21.65-19.79-21.65-8.63 0-13.48 4.73-17.08 9.36l-.26.33v-8.6h-16.36v58.42h16.36v-32.6c0-7.68 3.85-12.08 10.55-12.08M228.63 89.5c0 4.38-1.45 8.41-4.08 11.34-2.82 3.14-6.72 4.8-11.29 4.8s-8.39-1.74-11.28-4.91c-2.78-3.05-4.31-7.11-4.31-11.45v-.22c0-4.38 1.45-8.4 4.08-11.34 2.82-3.14 6.72-4.8 11.29-4.8s8.39 1.74 11.28 4.91c2.78 3.05 4.31 7.11 4.31 11.45v.22zm-15.37-30.63c-8.73 0-16.79 3.17-22.69 8.91-5.82 5.67-9.03 13.31-9.03 21.5v.22c0 8.18 3.18 15.78 8.96 21.39 5.85 5.68 13.85 8.8 22.54 8.8s16.79-3.17 22.69-8.91c5.83-5.67 9.03-13.31 9.03-21.5v-.22c0-8.18-3.18-15.78-8.97-21.39-5.85-5.68-13.85-8.8-22.54-8.8m-46.13 59.51h18.71L162.8 82.91l.08-.08 22.1-22.87h-19.52l-19.71 21.59V40.38H129.4v78h16.35v-17.77l.04-.04 5.94-6.27 15.39 24.08zm-79.82 1.09c8.63 0 13.48-4.73 17.08-9.36l.26-.33v8.6H121V59.96h-16.36v32.6c0 7.68-3.85 12.08-10.55 12.08s-10.22-4.29-10.22-12.08v-32.6H67.51v37.86c0 13.56 7.4 21.65 19.79 21.65M37.74 72.08l-.12-.21L19.37 42H0l29.34 45.42v30.96h16.58V87.09l.02-.03L75.26 42H56.44l-18.7 30.08z" fill="#231f20"/><path d="M213.12 0l-5.84 18.78-12.69-15.02 1.78 19.58-17.46-9.03 9.14 17.41-19.59-1.65 15.11 12.59-18.73 5.96 16.09 5.01 13.83-14.78 5.65 6.04 12.87-13.74 12.86 13.74 5.65-6.04 13.69 14.63 16.26-5.19-18.77-5.84 15.02-12.69-19.58 1.79 9.02-17.47-17.4 9.14 1.65-19.6-12.58 15.11L213.12 0z" fill="#f5a800"/></svg>